<?xml version="1.0" standalone="no"?>
<!DOCTYPE svg PUBLIC "-//W3C//DTD SVG 20010904//EN"
 "http://www.w3.org/TR/2001/REC-SVG-20010904/DTD/svg10.dtd">
<svg version="1.0" xmlns="http://www.w3.org/2000/svg"
 width="700.000000pt" height="700.000000pt" viewBox="0 0 700.000000 700.000000"
 preserveAspectRatio="xMidYMid meet">
<metadata>
Created by potrace 1.14, written by Peter Selinger 2001-2017
</metadata>
<g transform="translate(0.000000,700.000000) scale(0.100000,-0.100000)"
fill="#000000" stroke="none">
<path d="M2725 5236 c-85 -27 -144 -75 -180 -146 -24 -47 -30 -153 -15 -237
38 -204 142 -380 298 -504 205 -164 429 -231 568 -170 258 112 219 523 -80
825 -185 188 -429 283 -591 232z"/>
<path d="M4067 5129 c-119 -28 -212 -125 -253 -264 -24 -80 -24 -246 0 -335
57 -214 196 -382 374 -451 86 -34 208 -33 284 3 140 65 218 218 218 428 0 151
-40 272 -133 396 -79 107 -224 201 -346 224 -62 12 -91 11 -144 -1z"/>
<path d="M1773 4529 c-100 -19 -179 -76 -219 -155 -29 -59 -26 -180 7 -259
114 -277 474 -532 780 -552 140 -9 233 21 306 99 49 54 67 103 67 183 0 133
-63 254 -205 395 -216 215 -515 333 -736 289z"/>
<path d="M3412 4029 c-74 -12 -187 -58 -258 -104 -98 -64 -214 -188 -256 -275
-69 -140 -71 -269 -7 -450 72 -201 117 -406 124 -557 6 -129 32 -344 51 -415
22 -85 57 -161 110 -235 164 -230 510 -311 763 -178 88 46 170 132 241 250
126 212 289 391 470 514 49 34 152 91 227 127 246 116 266 127 328 186 71 66
118 146 140 239 40 172 -5 331 -129 454 -111 110 -244 162 -536 210 -297 48
-702 133 -830 175 -197 64 -313 80 -438 59z"/>
<path d="M2028 3340 c-256 -47 -382 -191 -334 -381 56 -216 301 -414 588 -473
103 -21 179 -20 273 4 276 71 358 289 198 526 -56 82 -176 191 -259 236 -136
72 -341 111 -466 88z"/>
</g>
</svg>
