<svg width="133" height="32" viewBox="0 0 133 32" fill="none" xmlns="http://www.w3.org/2000/svg">
<g clip-path="url(#clip0_1_188)">
<circle cx="16" cy="16" r="16" fill="url(#paint0_linear_1_188)"/>
<path d="M13.7718 20.0462C13.869 20.722 13.869 21.4218 14.087 22.064C14.4363 23.0933 15.2164 23.8316 16.4403 23.9783C17.6038 24.1154 18.5362 23.5935 19.0326 22.6893C19.8967 21.1212 21.1469 20.0197 22.925 19.3343C23.8889 18.9639 24.4589 18.2064 24.4983 17.23C24.5377 16.2006 23.9231 15.419 22.9566 15.0222C22.1765 14.7023 21.2599 14.6639 20.4089 14.4859C19.4397 14.2815 18.4312 14.1564 17.5145 13.8245C16.1803 13.3411 15.0772 13.4469 14.0003 14.3777C12.9471 15.2892 12.7528 16.3113 13.2781 17.5498C13.609 18.3363 13.8716 20.0245 13.7745 20.0462H13.7718Z" fill="#5E35B1"/>
<path d="M16.3168 11.5446C16.3168 10.1906 15.0194 8.55761 13.588 8.11028C12.3509 7.72308 11.3607 8.38926 11.5236 9.57972C11.7337 11.1093 12.6293 12.2492 14.2104 12.8577C15.4055 13.317 16.3195 12.7182 16.3195 11.5446H16.3168Z" fill="#5E35B1"/>
<path d="M8.57929 11.2512C7.39738 11.2416 6.76703 11.9896 7.07958 13.0285C7.47618 14.3512 9.30419 15.6764 10.7986 15.7269C11.97 15.7654 12.6345 15.0246 12.3588 13.9833C12.0042 12.6365 10.1053 11.2633 8.57929 11.2512Z" fill="#5E35B1"/>
<path d="M9.8426 16.6936C8.23784 16.6888 7.41838 17.5426 7.77821 18.6128C8.21157 19.9019 10.0816 20.9264 11.5235 20.6643C12.7685 20.4382 13.3174 19.4642 12.7291 18.4348C12.083 17.3069 10.993 16.7802 9.84523 16.6936H9.8426Z" fill="#5E35B1"/>
<path d="M20.5612 9.24551C19.4135 8.21859 18.1764 8.30757 17.6196 9.30564C16.9499 10.5081 17.5119 12.4345 18.7464 13.1656C19.8127 13.7981 20.9473 13.4494 21.3045 12.3335C21.6985 11.1118 21.315 10.0392 20.5586 9.24311L20.5612 9.24551Z" fill="#5E35B1"/>
</g>
<path d="M41.0442 23.6788C40.7496 23.6788 40.502 23.5784 40.3012 23.3777C40.1004 23.1769 40 22.9293 40 22.6349V9.04391C40 8.73609 40.1004 8.4885 40.3012 8.30113C40.502 8.10038 40.7496 8 41.0442 8H44.6786C45.8299 8 46.874 8.19406 47.8111 8.58218C48.7615 8.95692 49.5848 9.49895 50.2809 10.2083C50.977 10.9042 51.5124 11.7273 51.8873 12.6775C52.2621 13.6278 52.4495 14.6784 52.4495 15.8294C52.4495 16.9803 52.2621 18.0376 51.8873 19.0013C51.5124 19.9515 50.977 20.7813 50.2809 21.4906C49.5848 22.1865 48.7615 22.7286 47.8111 23.1167C46.874 23.4914 45.8299 23.6788 44.6786 23.6788H41.0442ZM42.0883 21.8319H44.6786C45.8031 21.8319 46.7937 21.5776 47.6504 21.069C48.5206 20.5471 49.2033 19.8377 49.6986 18.941C50.1939 18.0309 50.4415 16.9937 50.4415 15.8294C50.4415 14.6516 50.1939 13.6144 49.6986 12.7177C49.2033 11.821 48.5206 11.1184 47.6504 10.6098C46.7937 10.1012 45.8031 9.84693 44.6786 9.84693H42.0883V21.8319Z" fill="#5E35B1"/>
<path d="M56.1081 16.813C56.1081 16.01 56.3022 15.294 56.6904 14.665C57.092 14.0226 57.6275 13.514 58.2968 13.1393C58.9662 12.7645 59.7024 12.5772 60.5056 12.5772C61.3088 12.5772 61.9045 12.711 62.2927 12.9787C62.6943 13.233 62.8483 13.5408 62.7546 13.9021C62.7144 14.0895 62.6341 14.2367 62.5136 14.3438C62.4065 14.4375 62.2793 14.4977 62.1321 14.5245C61.9848 14.5512 61.8242 14.5445 61.6502 14.5044C60.7934 14.3304 60.0237 14.317 59.341 14.4642C58.6583 14.6115 58.1161 14.8858 57.7145 15.2873C57.3263 15.6888 57.1322 16.1974 57.1322 16.813H56.1081ZM56.1282 23.6788C55.8069 23.6788 55.5593 23.5985 55.3852 23.4379C55.2112 23.2639 55.1242 23.0096 55.1242 22.675V13.7014C55.1242 13.3802 55.2112 13.1326 55.3852 12.9586C55.5593 12.7846 55.8069 12.6976 56.1282 12.6976C56.4629 12.6976 56.7105 12.7846 56.8712 12.9586C57.0452 13.1192 57.1322 13.3668 57.1322 13.7014V22.675C57.1322 22.9962 57.0452 23.2438 56.8712 23.4178C56.7105 23.5918 56.4629 23.6788 56.1282 23.6788Z" fill="#5E35B1"/>
<path d="M62.4623 24C62.0875 24 61.7595 23.8662 61.4784 23.5985C61.2107 23.3174 61.0768 22.9895 61.0768 22.6148C61.0768 22.2267 61.2107 21.8988 61.4784 21.6311C61.7595 21.3501 62.0875 21.2095 62.4623 21.2095C62.8505 21.2095 63.1785 21.3501 63.4462 21.6311C63.7139 21.8988 63.8478 22.2267 63.8478 22.6148C63.8478 22.9895 63.7139 23.3174 63.4462 23.5985C63.1785 23.8662 62.8505 24 62.4623 24Z" fill="#5E35B1"/>
<path d="M72.9239 23.7992C72.6294 23.7992 72.3817 23.6989 72.1809 23.4981C71.9801 23.2974 71.8797 23.0498 71.8797 22.7553V9.16437C71.8797 8.85655 71.9801 8.60895 72.1809 8.42158C72.3817 8.22083 72.6294 8.12045 72.9239 8.12045H76.9399C77.9438 8.12045 78.8341 8.34128 79.6105 8.78294C80.3869 9.22459 80.9893 9.84024 81.4177 10.6299C81.8594 11.4061 82.0803 12.3028 82.0803 13.32C82.0803 14.2969 81.8594 15.1669 81.4177 15.9297C80.9893 16.6926 80.3869 17.2882 79.6105 17.7164C78.8341 18.1447 77.9438 18.3588 76.9399 18.3588H73.968V22.7553C73.968 23.0498 73.8676 23.2974 73.6668 23.4981C73.4794 23.6989 73.2318 23.7992 72.9239 23.7992ZM73.968 16.4316H76.9399C77.5556 16.4316 78.0978 16.2978 78.5663 16.0301C79.0349 15.7624 79.403 15.3944 79.6707 14.926C79.9384 14.4576 80.0723 13.9222 80.0723 13.32C80.0723 12.6775 79.9384 12.1154 79.6707 11.6336C79.403 11.1384 79.0349 10.7503 78.5663 10.4693C78.0978 10.1882 77.5556 10.0477 76.9399 10.0477H73.968V16.4316Z" fill="#5E35B1"/>
<path d="M88.5564 23.8796C87.4453 23.8796 86.4547 23.6453 85.5845 23.1769C84.7278 22.6951 84.0518 22.0393 83.5565 21.2095C83.0746 20.3664 82.8336 19.4028 82.8336 18.3187C82.8336 17.2212 83.0612 16.2576 83.5163 15.4279C83.9849 14.5847 84.6274 13.9289 85.444 13.4605C86.2606 12.9787 87.1976 12.7378 88.2552 12.7378C89.2993 12.7378 90.1962 12.972 90.9459 13.4404C91.6955 13.8954 92.2644 14.5312 92.6527 15.3476C93.0543 16.1506 93.2551 17.0807 93.2551 18.138C93.2551 18.3923 93.168 18.6064 92.994 18.7804C92.82 18.941 92.5991 19.0213 92.3314 19.0213H84.2392V17.4153H92.2711L91.4479 17.9774C91.4345 17.3082 91.3006 16.7127 91.0463 16.1907C90.7919 15.6554 90.4305 15.2338 89.962 14.926C89.4934 14.6182 88.9245 14.4642 88.2552 14.4642C87.4921 14.4642 86.8362 14.6315 86.2873 14.9661C85.7519 15.3007 85.3436 15.7624 85.0625 16.3513C84.7814 16.9268 84.6408 17.5826 84.6408 18.3187C84.6408 19.0548 84.8081 19.7106 85.1428 20.2861C85.4775 20.8616 85.9393 21.3166 86.5283 21.6512C87.1173 21.9858 87.7933 22.1531 88.5564 22.1531C88.9713 22.1531 89.393 22.0795 89.8214 21.9322C90.2632 21.7716 90.6179 21.591 90.8856 21.3902C91.0864 21.243 91.3006 21.1694 91.5282 21.1694C91.7691 21.156 91.9766 21.2229 92.1507 21.3701C92.3782 21.5709 92.4987 21.7917 92.5121 22.0326C92.5255 22.2735 92.4184 22.481 92.1908 22.655C91.7357 23.0163 91.1667 23.3108 90.484 23.5383C89.8147 23.7658 89.1721 23.8796 88.5564 23.8796Z" fill="#5E35B1"/>
<path d="M99.4616 23.7992C98.7923 23.7992 98.1899 23.632 97.6544 23.2974C97.119 22.9494 96.6973 22.481 96.3894 21.8921C96.0815 21.3032 95.9276 20.6407 95.9276 19.9046V10.3287C95.9276 10.0343 96.0213 9.79339 96.2087 9.60602C96.3961 9.41865 96.637 9.32497 96.9315 9.32497C97.2261 9.32497 97.467 9.41865 97.6544 9.60602C97.8418 9.79339 97.9355 10.0343 97.9355 10.3287V19.9046C97.9355 20.44 98.0828 20.8883 98.3773 21.2497C98.6718 21.611 99.0332 21.7917 99.4616 21.7917H100.144C100.385 21.7917 100.586 21.8854 100.747 22.0728C100.921 22.2601 101.008 22.501 101.008 22.7955C101.008 23.0899 100.894 23.3308 100.666 23.5182C100.452 23.7056 100.171 23.7992 99.823 23.7992H99.4616ZM95.0039 14.946C94.7228 14.946 94.4952 14.8657 94.3212 14.7051C94.1471 14.5445 94.0601 14.3438 94.0601 14.1029C94.0601 13.8352 94.1471 13.6211 94.3212 13.4605C94.4952 13.2999 94.7228 13.2196 95.0039 13.2196H99.6423C99.9234 13.2196 100.151 13.2999 100.325 13.4605C100.499 13.6211 100.586 13.8352 100.586 14.1029C100.586 14.3438 100.499 14.5445 100.325 14.7051C100.151 14.8657 99.9234 14.946 99.6423 14.946H95.0039Z" fill="#5E35B1"/>
<path d="M102.702 23.7992C102.327 23.7992 102.039 23.6386 101.838 23.3174C101.638 22.9962 101.618 22.655 101.778 22.2936L107.421 8.82309C107.621 8.35466 107.949 8.12045 108.405 8.12045C108.886 8.12045 109.214 8.35466 109.388 8.82309L115.051 22.3338C115.198 22.7085 115.171 23.0498 114.971 23.3576C114.783 23.652 114.495 23.7992 114.107 23.7992C113.906 23.7992 113.712 23.7457 113.525 23.6386C113.351 23.5182 113.224 23.3576 113.143 23.1568L108.164 10.7905H108.726L103.666 23.1568C103.572 23.371 103.431 23.5316 103.244 23.6386C103.07 23.7457 102.889 23.7992 102.702 23.7992ZM103.766 20.3463L104.569 18.6198H112.441L113.244 20.3463H103.766Z" fill="#5E35B1"/>
<path d="M118.065 23.7992C117.771 23.7992 117.523 23.7056 117.322 23.5182C117.135 23.3174 117.041 23.0698 117.041 22.7754V13.8419C117.041 13.5341 117.135 13.2865 117.322 13.0991C117.523 12.9118 117.771 12.8181 118.065 12.8181C118.373 12.8181 118.621 12.9118 118.808 13.0991C118.996 13.2865 119.09 13.5341 119.09 13.8419V22.7754C119.09 23.0698 118.996 23.3174 118.808 23.5182C118.621 23.7056 118.373 23.7992 118.065 23.7992ZM118.065 11.0314C117.704 11.0314 117.389 10.9042 117.122 10.6499C116.867 10.3823 116.74 10.0678 116.74 9.7064C116.74 9.34504 116.867 9.03722 117.122 8.78294C117.389 8.51527 117.704 8.38143 118.065 8.38143C118.427 8.38143 118.735 8.51527 118.989 8.78294C119.257 9.03722 119.391 9.34504 119.391 9.7064C119.391 10.0678 119.257 10.3823 118.989 10.6499C118.735 10.9042 118.427 11.0314 118.065 11.0314Z" fill="#5E35B1"/>
<path d="M127.478 23.8796C126.434 23.8796 125.49 23.6386 124.647 23.1568C123.817 22.6616 123.154 21.9925 122.659 21.1493C122.177 20.3062 121.936 19.3559 121.936 18.2986C121.936 17.2413 122.157 16.2978 122.599 15.468C123.054 14.6248 123.67 13.9624 124.446 13.4806C125.222 12.9854 126.099 12.7378 127.076 12.7378C127.866 12.7378 128.596 12.9051 129.265 13.2396C129.934 13.5609 130.497 14.0025 130.952 14.5646V9.14429C130.952 8.83647 131.046 8.58888 131.233 8.40151C131.434 8.21414 131.681 8.12045 131.976 8.12045C132.284 8.12045 132.531 8.21414 132.719 8.40151C132.906 8.58888 133 8.83647 133 9.14429V18.2986C133 19.3559 132.752 20.3062 132.257 21.1493C131.775 21.9925 131.119 22.6616 130.289 23.1568C129.459 23.6386 128.522 23.8796 127.478 23.8796ZM127.478 22.0728C128.161 22.0728 128.77 21.9122 129.305 21.591C129.841 21.2564 130.262 20.8013 130.57 20.2258C130.878 19.6504 131.032 19.0079 131.032 18.2986C131.032 17.5759 130.878 16.9335 130.57 16.3714C130.262 15.8093 129.841 15.3676 129.305 15.0464C128.77 14.7118 128.161 14.5445 127.478 14.5445C126.809 14.5445 126.2 14.7118 125.651 15.0464C125.115 15.3676 124.687 15.8093 124.366 16.3714C124.058 16.9335 123.904 17.5759 123.904 18.2986C123.904 19.0079 124.058 19.6504 124.366 20.2258C124.687 20.8013 125.115 21.2564 125.651 21.591C126.2 21.9122 126.809 22.0728 127.478 22.0728Z" fill="#5E35B1"/>
<defs>
<linearGradient id="paint0_linear_1_188" x1="16" y1="0" x2="19.9385" y2="31.5077" gradientUnits="userSpaceOnUse">
<stop offset="0.750542" stop-color="#F8F7F8"/>
<stop offset="1" stop-color="#E9E2F6"/>
</linearGradient>
<clipPath id="clip0_1_188">
<rect width="32" height="32" fill="white"/>
</clipPath>
</defs>
</svg>
