<svg width="32" height="32" viewBox="0 0 32 32" fill="none" xmlns="http://www.w3.org/2000/svg">
<g clip-path="url(#clip0_106_52)">
<circle cx="16" cy="16" r="16" fill="url(#paint0_linear_106_52)"/>
<path d="M13.7718 20.0462C13.869 20.722 13.869 21.4218 14.087 22.064C14.4363 23.0933 15.2164 23.8316 16.4403 23.9783C17.6038 24.1154 18.5362 23.5935 19.0326 22.6893C19.8967 21.1212 21.1469 20.0197 22.925 19.3343C23.8889 18.9639 24.4589 18.2064 24.4983 17.23C24.5377 16.2006 23.9231 15.419 22.9566 15.0222C22.1765 14.7023 21.2599 14.6639 20.4089 14.4859C19.4397 14.2815 18.4312 14.1564 17.5145 13.8245C16.1803 13.3411 15.0772 13.4469 14.0003 14.3777C12.9471 15.2892 12.7528 16.3113 13.2781 17.5498C13.609 18.3363 13.8716 20.0245 13.7745 20.0462H13.7718Z" fill="#5E35B1"/>
<path d="M16.3168 11.5446C16.3168 10.1906 15.0194 8.55761 13.588 8.11028C12.3509 7.72308 11.3607 8.38926 11.5236 9.57972C11.7337 11.1093 12.6293 12.2492 14.2104 12.8577C15.4055 13.317 16.3195 12.7182 16.3195 11.5446H16.3168Z" fill="#5E35B1"/>
<path d="M8.57929 11.2512C7.39738 11.2416 6.76703 11.9896 7.07958 13.0285C7.47618 14.3512 9.30419 15.6764 10.7986 15.7269C11.97 15.7654 12.6345 15.0246 12.3588 13.9833C12.0042 12.6365 10.1053 11.2633 8.57929 11.2512Z" fill="#5E35B1"/>
<path d="M9.8426 16.6936C8.23784 16.6888 7.41838 17.5426 7.77821 18.6128C8.21157 19.9019 10.0816 20.9264 11.5235 20.6643C12.7685 20.4382 13.3174 19.4642 12.7291 18.4348C12.083 17.3069 10.993 16.7802 9.84523 16.6936H9.8426Z" fill="#5E35B1"/>
<path d="M20.5612 9.24551C19.4135 8.21859 18.1764 8.30757 17.6196 9.30564C16.9499 10.5081 17.5119 12.4345 18.7464 13.1656C19.8127 13.7981 20.9473 13.4494 21.3045 12.3335C21.6985 11.1118 21.315 10.0392 20.5586 9.24311L20.5612 9.24551Z" fill="#5E35B1"/>
</g>
<defs>
<linearGradient id="paint0_linear_106_52" x1="16" y1="0" x2="19.9385" y2="31.5077" gradientUnits="userSpaceOnUse">
<stop offset="0.750542" stop-color="#F8F7F8"/>
<stop offset="1" stop-color="#E9E2F6"/>
</linearGradient>
<clipPath id="clip0_106_52">
<rect width="32" height="32" fill="white"/>
</clipPath>
</defs>
</svg>
